<svg width="300" height="30" viewBox="0 0 300 30" fill="none" xmlns="http://www.w3.org/2000/svg">
<path d="M24.64 8.90001H23.16L16.78 23H18.4L20.06 19.3H27.68L29.32 23H31.02L24.64 8.90001ZM27.06 17.88H20.68L23.88 10.74L27.06 17.88Z" fill="black"/>
<path d="M38.6839 10.46H43.3839V9.00001H32.3839V10.46H37.0839V23H38.6839V10.46Z" fill="black"/>
<path d="M59.5727 11.66V23H61.1527V9.00001H59.5527L54.4527 16.64L49.3527 9.00001H47.7527V23H49.2927V11.68L54.3927 19.16H54.4727L59.5727 11.66Z" fill="black"/>
<path d="M80.176 15.98C80.176 12.1 77.316 8.76001 73.056 8.76001C68.796 8.76001 65.896 12.14 65.896 16.02C65.896 19.9 68.756 23.24 73.016 23.24C77.276 23.24 80.176 19.86 80.176 15.98ZM78.536 16.02C78.536 19.22 76.256 21.78 73.056 21.78C69.856 21.78 67.536 19.18 67.536 15.98C67.536 12.78 69.816 10.22 73.016 10.22C76.216 10.22 78.536 12.82 78.536 16.02Z" fill="black"/>
<path d="M86.0305 12.5C86.0305 11.22 87.1905 10.22 89.0105 10.22C90.4505 10.22 91.7505 10.68 93.0505 11.74L93.9705 10.52C92.5505 9.38001 91.0905 8.80001 89.0505 8.80001C86.3905 8.80001 84.4505 10.4 84.4505 12.64C84.4505 14.96 85.9305 16 89.1505 16.7C92.0905 17.32 92.7905 18.06 92.7905 19.38C92.7905 20.8 91.5505 21.78 89.6705 21.78C87.7305 21.78 86.3305 21.12 84.8705 19.8L83.8905 20.96C85.5705 22.46 87.3905 23.2 89.6105 23.2C92.3905 23.2 94.3905 21.64 94.3905 19.22C94.3905 17.06 92.9505 15.92 89.8305 15.24C86.7505 14.58 86.0305 13.84 86.0305 12.5Z" fill="black"/>
<path d="M109.483 13.46C109.483 10.68 107.403 9.00001 104.243 9.00001H99.0035V23H100.583V18.06H103.983C106.963 18.06 109.483 16.5 109.483 13.46ZM107.883 13.52C107.883 15.38 106.363 16.62 104.043 16.62H100.583V10.46H104.123C106.383 10.46 107.883 11.5 107.883 13.52Z" fill="black"/>
<path d="M123.423 16.7V23H125.003V9.00001H123.423V15.22H115.343V9.00001H113.763V23H115.343V16.7H123.423Z" fill="black"/>
<path d="M140.478 9.00001H130.358V23H140.578V21.56H131.938V16.66H139.578V15.22H131.938V10.44H140.478V9.00001Z" fill="black"/>
<path d="M156.737 23L152.437 17.28C154.637 16.88 156.237 15.52 156.237 13.18C156.237 10.66 154.257 9.00001 151.177 9.00001H145.157V23H146.737V17.56H150.737L154.797 23H156.737ZM154.637 13.24C154.637 15.06 153.137 16.14 151.037 16.14H146.737V10.46H151.057C153.317 10.46 154.637 11.5 154.637 13.24Z" fill="black"/>
<path d="M161.15 9.00001V23H162.73V9.00001H161.15Z" fill="black"/>
<path d="M180.23 20.78L179.19 19.76C177.85 21.04 176.59 21.78 174.67 21.78C171.59 21.78 169.25 19.24 169.25 15.98C169.25 12.72 171.57 10.22 174.67 10.22C176.57 10.22 177.89 11.02 179.07 12.14L180.15 10.98C178.75 9.66001 177.23 8.76001 174.69 8.76001C170.57 8.76001 167.61 12.02 167.61 16.02C167.61 20.06 170.59 23.24 174.63 23.24C177.17 23.24 178.77 22.26 180.23 20.78Z" fill="black"/>
<path d="M211.488 15.98C211.488 12.02 208.448 9.00001 204.048 9.00001H199.188V23H204.048C208.448 23 211.488 19.94 211.488 15.98ZM209.848 16.02C209.848 19.14 207.588 21.54 204.048 21.54H200.768V10.46H204.048C207.588 10.46 209.848 12.9 209.848 16.02Z" fill="black"/>
<path d="M226.352 9.00001H216.232V23H226.452V21.56H217.812V16.66H225.452V15.22H217.812V10.44H226.352V9.00001Z" fill="black"/>
<path d="M232.251 12.5C232.251 11.22 233.411 10.22 235.231 10.22C236.671 10.22 237.971 10.68 239.271 11.74L240.191 10.52C238.771 9.38001 237.311 8.80001 235.271 8.80001C232.611 8.80001 230.671 10.4 230.671 12.64C230.671 14.96 232.151 16 235.371 16.7C238.311 17.32 239.011 18.06 239.011 19.38C239.011 20.8 237.771 21.78 235.891 21.78C233.951 21.78 232.551 21.12 231.091 19.8L230.111 20.96C231.791 22.46 233.611 23.2 235.831 23.2C238.611 23.2 240.611 21.64 240.611 19.22C240.611 17.06 239.171 15.92 236.051 15.24C232.971 14.58 232.251 13.84 232.251 12.5Z" fill="black"/>
<path d="M245.364 9.00001V23H246.944V9.00001H245.364Z" fill="black"/>
<path d="M264.564 21.1V15.52H258.784V16.94H263.044V20.42C262.084 21.2 260.604 21.82 259.004 21.82C255.604 21.82 253.464 19.34 253.464 15.98C253.464 12.84 255.684 10.22 258.784 10.22C260.764 10.22 261.964 10.88 263.044 11.82L264.064 10.62C262.664 9.44001 261.204 8.76001 258.844 8.76001C254.644 8.76001 251.824 12.16 251.824 16.02C251.824 20.04 254.544 23.24 258.944 23.24C261.304 23.24 263.264 22.26 264.564 21.1Z" fill="black"/>
<path d="M279.828 20.22L271.008 9.00001H269.528V23H271.068V11.52L280.108 23H281.368V9.00001H279.828V20.22Z" fill="black"/>
</svg>
