<svg width="179" height="156" viewBox="0 0 179 156" fill="none" xmlns="http://www.w3.org/2000/svg">
<path d="M26.4485 26.552H9.16847L5.52047 35H0.480469L15.6965 0.824003H19.8725L35.1365 35H30.0965L26.4485 26.552ZM24.7685 22.616L17.8085 6.344L10.8485 22.616H24.7685Z" fill="black"/>
<path d="M46.2845 4.952H34.7165V0.824003H62.8445V4.952H51.2765V35H46.2845V4.952Z" fill="black"/>
<path d="M102.797 0.824003V35H98.3333V11.528L88.2053 35H84.7973L74.5253 11.672L74.5733 35H70.1093V0.824003H74.0933L86.5253 29.048L98.8133 0.824003H102.797Z" fill="black"/>
<path d="M128.124 35.384C124.892 35.384 122.076 34.68 119.676 33.272C117.308 31.832 115.468 29.8 114.156 27.176C112.876 24.552 112.236 21.464 112.236 17.912C112.236 14.328 112.876 11.224 114.156 8.6C115.436 5.976 117.276 3.96 119.676 2.552C122.076 1.144 124.892 0.440002 128.124 0.440002C131.388 0.440002 134.204 1.144 136.572 2.552C138.972 3.96 140.812 5.976 142.092 8.6C143.372 11.224 144.012 14.312 144.012 17.864C144.012 21.448 143.372 24.552 142.092 27.176C140.812 29.8 138.972 31.832 136.572 33.272C134.172 34.68 131.356 35.384 128.124 35.384ZM128.124 31.352C131.548 31.352 134.204 30.184 136.092 27.848C138.012 25.512 138.972 22.184 138.972 17.864C138.972 13.576 138.012 10.28 136.092 7.976C134.204 5.64 131.548 4.472 128.124 4.472C124.7 4.472 122.044 5.64 120.156 7.976C118.268 10.28 117.324 13.576 117.324 17.864C117.324 22.184 118.268 25.512 120.156 27.848C122.076 30.184 124.732 31.352 128.124 31.352Z" fill="black"/>
<path d="M164.666 35.384C162.01 35.384 159.578 35.032 157.37 34.328C155.194 33.624 153.306 32.568 151.706 31.16L153.482 27.512C155.146 28.856 156.874 29.832 158.666 30.44C160.458 31.048 162.474 31.352 164.714 31.352C167.274 31.352 169.258 30.872 170.666 29.912C172.074 28.952 172.778 27.592 172.778 25.832C172.778 24.36 172.122 23.256 170.81 22.52C169.498 21.752 167.418 21.048 164.57 20.408C161.85 19.832 159.626 19.176 157.898 18.44C156.17 17.672 154.81 16.664 153.818 15.416C152.826 14.136 152.33 12.504 152.33 10.52C152.33 8.536 152.858 6.792 153.914 5.288C154.97 3.752 156.458 2.568 158.378 1.736C160.33 0.872003 162.57 0.440002 165.098 0.440002C167.498 0.440002 169.738 0.808002 171.818 1.544C173.93 2.28 175.69 3.32 177.098 4.664L175.322 8.312C173.754 7 172.138 6.04 170.474 5.432C168.81 4.792 167.034 4.472 165.146 4.472C162.682 4.472 160.746 5 159.338 6.056C157.93 7.08 157.226 8.488 157.226 10.28C157.226 11.816 157.834 12.984 159.05 13.784C160.298 14.584 162.282 15.304 165.002 15.944C167.85 16.584 170.154 17.256 171.914 17.96C173.674 18.664 175.082 19.624 176.138 20.84C177.194 22.056 177.722 23.624 177.722 25.544C177.722 27.528 177.194 29.256 176.138 30.728C175.082 32.2 173.562 33.352 171.578 34.184C169.626 34.984 167.322 35.384 164.666 35.384Z" fill="black"/>
<path d="M3.98447 60.824H18.1925C21.7765 60.824 24.5605 61.704 26.5445 63.464C28.5605 65.192 29.5685 67.56 29.5685 70.568C29.5685 73.576 28.5445 75.96 26.4965 77.72C24.4805 79.448 21.7125 80.312 18.1925 80.312H8.92847V95H3.98447V60.824ZM17.6165 76.376C19.9845 76.376 21.7605 75.88 22.9445 74.888C24.1605 73.896 24.7685 72.456 24.7685 70.568C24.7685 68.712 24.1605 67.288 22.9445 66.296C21.7605 65.304 19.9845 64.808 17.6165 64.808H8.92847V76.376H17.6165Z" fill="black"/>
<path d="M65.2902 60.824V95H60.3462V79.688H41.1942V95H36.2982V60.824H41.1942V75.608H60.3462V60.824H65.2902Z" fill="black"/>
<path d="M73.9557 60.824H96.1317V64.856H78.8517V75.608H95.1717V79.64H78.8517V90.968H96.1317V95H73.9557V60.824Z" fill="black"/>
<path d="M130.443 95H125.211L120.939 83.624C120.491 82.408 119.835 81.576 118.971 81.128C118.107 80.648 116.923 80.408 115.419 80.408H107.931V95H103.035V60.824H117.099C120.843 60.824 123.707 61.656 125.691 63.32C127.707 64.984 128.715 67.368 128.715 70.472C128.715 72.712 128.123 74.616 126.939 76.184C125.755 77.752 124.075 78.856 121.899 79.496C123.883 79.848 125.323 81.256 126.219 83.72L130.443 95ZM116.523 76.424C119.019 76.424 120.875 75.944 122.091 74.984C123.307 73.992 123.915 72.52 123.915 70.568C123.915 68.616 123.307 67.176 122.091 66.248C120.907 65.288 119.051 64.808 116.523 64.808H107.931V76.424H116.523Z" fill="black"/>
<path d="M137.224 60.824H142.168V95H137.224V60.824Z" fill="black"/>
<path d="M165.858 95.384C162.562 95.384 159.682 94.68 157.218 93.272C154.786 91.832 152.914 89.8 151.602 87.176C150.29 84.552 149.634 81.448 149.634 77.864C149.634 74.312 150.29 71.224 151.602 68.6C152.914 65.976 154.786 63.96 157.218 62.552C159.682 61.144 162.562 60.44 165.858 60.44C168.194 60.44 170.354 60.808 172.338 61.544C174.354 62.248 176.05 63.288 177.426 64.664L175.698 68.312C174.098 67 172.514 66.056 170.946 65.48C169.41 64.872 167.73 64.568 165.906 64.568C162.354 64.568 159.602 65.72 157.65 68.024C155.73 70.328 154.77 73.608 154.77 77.864C154.77 82.152 155.73 85.464 157.65 87.8C159.602 90.104 162.354 91.256 165.906 91.256C167.73 91.256 169.41 90.968 170.946 90.392C172.514 89.784 174.098 88.824 175.698 87.512L177.426 91.16C176.05 92.536 174.354 93.592 172.338 94.328C170.354 95.032 168.194 95.384 165.858 95.384Z" fill="black"/>
<path d="M3.98447 120.824H15.9365C21.4725 120.824 25.7605 122.312 28.8005 125.288C31.8405 128.264 33.3605 132.456 33.3605 137.864C33.3605 143.304 31.8405 147.528 28.8005 150.536C25.7605 153.512 21.4725 155 15.9365 155H3.98447V120.824ZM15.6485 150.872C24.0645 150.872 28.2725 146.536 28.2725 137.864C28.2725 129.256 24.0645 124.952 15.6485 124.952H8.92847V150.872H15.6485Z" fill="black"/>
<path d="M40.8451 120.824H63.0211V124.856H45.7411V135.608H62.0611V139.64H45.7411V150.968H63.0211V155H40.8451V120.824Z" fill="black"/>
<path d="M80.6397 155.384C77.9837 155.384 75.5517 155.032 73.3437 154.328C71.1677 153.624 69.2797 152.568 67.6797 151.16L69.4557 147.512C71.1197 148.856 72.8477 149.832 74.6397 150.44C76.4317 151.048 78.4477 151.352 80.6877 151.352C83.2477 151.352 85.2317 150.872 86.6397 149.912C88.0477 148.952 88.7517 147.592 88.7517 145.832C88.7517 144.36 88.0957 143.256 86.7837 142.52C85.4717 141.752 83.3917 141.048 80.5437 140.408C77.8237 139.832 75.5997 139.176 73.8717 138.44C72.1437 137.672 70.7837 136.664 69.7917 135.416C68.7997 134.136 68.3037 132.504 68.3037 130.52C68.3037 128.536 68.8317 126.792 69.8877 125.288C70.9437 123.752 72.4317 122.568 74.3517 121.736C76.3037 120.872 78.5437 120.44 81.0717 120.44C83.4717 120.44 85.7117 120.808 87.7917 121.544C89.9037 122.28 91.6637 123.32 93.0717 124.664L91.2957 128.312C89.7277 127 88.1117 126.04 86.4477 125.432C84.7837 124.792 83.0077 124.472 81.1197 124.472C78.6557 124.472 76.7197 125 75.3117 126.056C73.9037 127.08 73.1997 128.488 73.1997 130.28C73.1997 131.816 73.8077 132.984 75.0237 133.784C76.2717 134.584 78.2557 135.304 80.9757 135.944C83.8237 136.584 86.1277 137.256 87.8877 137.96C89.6477 138.664 91.0557 139.624 92.1117 140.84C93.1677 142.056 93.6957 143.624 93.6957 145.544C93.6957 147.528 93.1677 149.256 92.1117 150.728C91.0557 152.2 89.5357 153.352 87.5517 154.184C85.5997 154.984 83.2957 155.384 80.6397 155.384Z" fill="black"/>
<path d="M100.551 120.824H105.495V155H100.551V120.824Z" fill="black"/>
<path d="M141.857 136.856V152.984C140.417 153.72 138.593 154.312 136.385 154.76C134.209 155.176 131.985 155.384 129.713 155.384C126.257 155.384 123.265 154.696 120.737 153.32C118.209 151.912 116.273 149.896 114.929 147.272C113.617 144.648 112.961 141.512 112.961 137.864C112.961 134.28 113.617 131.176 114.929 128.552C116.273 125.928 118.177 123.928 120.641 122.552C123.137 121.144 126.065 120.44 129.425 120.44C131.825 120.44 134.033 120.808 136.049 121.544C138.097 122.248 139.841 123.272 141.281 124.616L139.505 128.312C137.873 126.968 136.273 126.008 134.705 125.432C133.137 124.856 131.393 124.568 129.473 124.568C125.761 124.568 122.929 125.704 120.977 127.976C119.057 130.248 118.097 133.544 118.097 137.864C118.097 142.312 119.089 145.688 121.073 147.992C123.057 150.264 125.985 151.4 129.857 151.4C132.449 151.4 134.945 151.016 137.345 150.248V140.648H129.377V136.856H141.857Z" fill="black"/>
<path d="M178.21 120.824V155H174.418L154.834 129.176V155H150.178V120.824H153.922L173.554 146.696V120.824H178.21Z" fill="black"/>
</svg>
